# xmcd
# Track frame offsets:
# 150
# 15276
# 30017
# 45330
# 59321
# 73490
# 88815
# 102040
# 115685
# 128350
#
# Disc length: 1914 seconds
# Revision: 0
# Processed by: cddbd v1.5PL3 Copyright (c) Steve Scherf et al.
# Submitted via: VisiTrax 2.9.7.197 - For more info visit www.synapsa.com
#
DISCID=6c07780a
DTITLE=Reddy, Helen - Best Of
DYEAR=1975
DGENRE=
TTITLE0=I Am Woman
TTITLE1=I Don't Know How To Love Him
TTITLE2=Leave Me Alone (Ruby Red Dress)
TTITLE3=Delta Dawn
TTITLE4=You And Me Against The World
TTITLE5=Angie Baby
TTITLE6=Emotion
TTITLE7=Keep On Singing
TTITLE8=Peaceful
TTITLE9=Ain't No Way To Treat A Lady
EXTD=
EXTT0=
EXTT1=
EXTT2=
EXTT3=
EXTT4=
EXTT5=
EXTT6=
EXTT7=
EXTT8=
EXTT9=
PLAYORDER=
